<svg width="35" height="43" viewBox="0 0 35 43" fill="none" xmlns="http://www.w3.org/2000/svg">
<path d="M17.4997 1.00115C8.40017 1.00115 1 7.93889 1 16.4698V17.5008C1 21.0697 2.20024 24.5498 4.42883 27.4423L14.8661 40.9849C15.4767 41.778 16.4571 42.25 17.5002 42.25C18.5506 42.25 19.5369 41.7614 20.1299 40.949L30.7001 26.4632C32.8483 23.5193 34 20.0354 34 16.4687C34 7.93774 26.5998 1 17.5003 1L17.4997 1.00115ZM17.4997 3.06352C25.4103 3.06352 31.7998 9.05352 31.7998 16.47C31.7998 19.6214 30.7847 22.6993 28.8866 25.3L18.3117 39.7857C18.1272 40.0385 17.8263 40.1887 17.4996 40.1887C17.1611 40.1887 16.847 40.0392 16.6488 39.7819L6.21158 26.2349C4.2533 23.6929 3.1993 20.6368 3.1993 17.5013V16.4703C3.1993 9.05396 9.58856 3.06379 17.4994 3.06379L17.4997 3.06352Z" fill="white" stroke="black" stroke-width="0.1"/>
<path d="M17.5011 8.21899C12.654 8.21899 8.70142 11.9249 8.70142 16.4688C8.70142 21.0131 12.6544 24.7187 17.5011 24.7187C22.3483 24.7187 26.3009 21.0127 26.3009 16.4688C26.3009 11.9246 22.3479 8.21899 17.5011 8.21899ZM17.5011 10.2814C21.1591 10.2814 24.101 13.0395 24.101 16.4688C24.101 19.8982 21.1591 22.6563 17.5011 22.6563C13.8432 22.6563 10.9013 19.8982 10.9013 16.4688C10.9013 13.0395 13.8432 10.2814 17.5011 10.2814Z" fill="white" stroke="black" stroke-width="0.1"/>
</svg>
